<svg width="24" height="24" viewBox="0 0 24 24" fill="none" xmlns="http://www.w3.org/2000/svg">
<path d="M18.364 8.46447L20.4853 6.34315C21.2663 5.5621 21.2663 4.29577 20.4853 3.51473C19.7042 2.73368 18.4379 2.73368 17.6568 3.51473L15.5355 5.63605M18.364 8.46447L6.34314 20.4853C5.56209 21.2663 4.29576 21.2663 3.51471 20.4853C2.73366 19.7042 2.73366 18.4379 3.51471 17.6569L5 16.1716M18.364 8.46447L15.5355 5.63605M15.5355 5.63605L8.80593 12.3656M8.5 2.73333L11 2L10.2667 4.5L11 7L8.5 6.26667L6 7L6.73333 4.5L6 2L8.5 2.73333ZM4.5 9.73333L7 9L6.26667 11.5L7 14L4.5 13.2667L2 14L2.73333 11.5L2 9L4.5 9.73333Z" stroke="black" stroke-width="1.5" stroke-linecap="round" stroke-linejoin="round"/>
</svg>
