<svg width="24" height="24" viewBox="0 0 24 24" fill="none" xmlns="http://www.w3.org/2000/svg">
<path d="M19.9881 16.0032C20.73 16.3704 20.73 17.4285 19.9881 17.7957L12.7866 21.3599C12.2276 21.6366 11.5714 21.6366 11.0123 21.3599L3.81085 17.7957C3.06895 17.4285 3.06895 16.3704 3.81086 16.0032M19.9881 11.0032C20.73 11.3704 20.73 12.4285 19.9881 12.7957L12.7866 16.3599C12.2276 16.6366 11.5714 16.6366 11.0123 16.3599L3.81085 12.7957C3.06895 12.4285 3.06895 11.3704 3.81086 11.0032M12.7866 11.3599L19.9881 7.79573C20.73 7.42854 20.73 6.37043 19.9881 6.00325L12.7866 2.43906C12.2276 2.16236 11.5714 2.16236 11.0124 2.43906L3.81086 6.00325C3.06896 6.37043 3.06896 7.42854 3.81086 7.79573L11.0124 11.3599C11.5714 11.6366 12.2276 11.6366 12.7866 11.3599Z" stroke="black" stroke-width="1.5" stroke-linecap="round" stroke-linejoin="round"/>
</svg>
